<?xml version="1.0" encoding="utf-8"?>
<svg width="697" height="537" viewBox="0 0 697 537" fill="none" xmlns="http://www.w3.org/2000/svg">
<path d="M498.002 21.4547C467.563 40.3915 433.757 74.0055 425.876 110.028C407.482 194.167 516.157 245.346 584.326 244.149C627.64 243.384 672.405 220.235 689.348 180.367C700.372 154.427 698.697 124.323 689.348 97.7283C659.595 13.0153 577.929 -28.2404 498.002 21.4547Z" fill="#EEF2FD"/>
<mask id="mask0" mask-type="alpha" maskUnits="userSpaceOnUse" x="423" y="0" width="275" height="245">
<path d="M498.002 21.4547C467.563 40.3915 433.757 74.0055 425.876 110.028C407.482 194.167 516.157 245.346 584.326 244.149C627.64 243.384 672.405 220.235 689.348 180.367C700.372 154.427 698.697 124.323 689.348 97.7283C659.595 13.0153 577.929 -28.2404 498.002 21.4547Z" fill="#EEF2FD"/>
</mask>
<g mask="url(#mask0)">
<g filter="url(#filter0_d)">
<path fill-rule="evenodd" clip-rule="evenodd" d="M563.334 -17.2048C572.847 -19.0354 579.736 -24.4002 579.736 -30.7333C579.736 -38.5759 569.172 -44.9336 556.141 -44.9336C543.11 -44.9336 532.547 -38.5759 532.547 -30.7333C532.547 -27.2225 534.664 -24.0093 538.171 -21.5308C542.096 -18.7574 547.762 -16.9039 554.151 -16.5827L567.935 -4.33386L563.334 -17.2048Z" fill="white"/>
<path d="M563.334 -17.2048L563.239 -17.6958L562.667 -17.5856L562.863 -17.0365L563.334 -17.2048ZM538.171 -21.5308L537.883 -21.1225L538.171 -21.5308ZM554.151 -16.5827L554.483 -16.9565L554.352 -17.0733L554.176 -17.0821L554.151 -16.5827ZM567.935 -4.33386L567.603 -3.96011L568.405 -4.50216L567.935 -4.33386ZM579.236 -30.7333C579.236 -27.762 577.621 -24.9678 574.787 -22.6689C571.954 -20.3702 567.934 -18.5992 563.239 -17.6958L563.428 -16.7138C568.247 -17.641 572.428 -19.4677 575.417 -21.8923C578.406 -24.3167 580.236 -27.3714 580.236 -30.7333H579.236ZM556.141 -44.4336C562.581 -44.4336 568.388 -42.8615 572.567 -40.346C576.757 -37.8247 579.236 -34.4107 579.236 -30.7333H580.236C580.236 -34.8984 577.433 -38.5846 573.083 -41.2028C568.723 -43.8268 562.732 -45.4336 556.141 -45.4336V-44.4336ZM533.047 -30.7333C533.047 -34.4107 535.526 -37.8247 539.715 -40.346C543.895 -42.8615 549.701 -44.4336 556.141 -44.4336V-45.4336C549.551 -45.4336 543.56 -43.8268 539.2 -41.2028C534.849 -38.5846 532.047 -34.8984 532.047 -30.7333H533.047ZM538.46 -21.9391C535.032 -24.3611 533.047 -27.44 533.047 -30.7333H532.047C532.047 -27.005 534.295 -23.6575 537.883 -21.1225L538.46 -21.9391ZM554.176 -17.0821C547.861 -17.3995 542.292 -19.2312 538.46 -21.9391L537.883 -21.1225C541.9 -18.2836 547.662 -16.4082 554.126 -16.0833L554.176 -17.0821ZM568.267 -4.70761L554.483 -16.9565L553.819 -16.209L567.603 -3.96011L568.267 -4.70761ZM562.863 -17.0365L567.464 -4.16556L568.405 -4.50216L563.805 -17.3731L562.863 -17.0365Z" fill="#F4F4F4"/>
</g>
<path d="M574.904 38.9065C574.904 38.9065 578.403 41.4402 573.637 48.1366C588.299 42.3451 591.497 40.9576 591.497 40.9576C591.497 40.9576 580.515 33.2357 584.196 29.5557C587.816 25.936 574.904 38.9065 574.904 38.9065Z" fill="#FCC192"/>
<path d="M610.578 221.066L618.857 222.404L620.321 213.352L612.041 212.014L610.578 221.066Z" fill="#FCC192"/>
<path d="M605.978 212.287L606.762 219.768L595.539 220.19L597.832 216.932V209.633H605.917L605.978 212.287Z" fill="#FCC192"/>
<path d="M588.6 108.401C588.6 108.401 588.841 209.631 599.099 213.251C608.934 216.75 607.305 205.529 607.908 201.547C607.908 201.487 607.908 201.427 607.908 201.366L613.882 107.617L588.6 108.401Z" fill="#2D54A0"/>
<path d="M629.751 149.969C629.751 149.969 633.19 223.569 613.519 216.148C606.761 214.821 607.063 128.251 610.563 119.262C614.062 110.334 628.483 115.401 628.483 115.401C628.483 115.401 630.173 138.205 629.751 149.969Z" fill="#214791"/>
<path d="M606.22 215.063C606.22 215.063 604.711 221.578 601.151 217.476C597.591 213.434 597.048 214.761 596.324 215.545C595.6 216.269 591.437 223.87 589.144 225.017C586.911 226.163 582.989 227.43 584.317 230.326C585.644 233.221 601.634 236.057 606.763 226.827C611.952 217.596 606.22 215.063 606.22 215.063Z" fill="#050065"/>
<path d="M610.263 217.655C610.263 217.655 603.747 230.866 603.807 233.581C603.928 236.296 609.238 241.243 619.133 234.245C620.219 232.857 622.21 224.954 619.314 221.274C616.478 217.594 610.444 215.724 610.263 217.655Z" fill="#050065"/>
<path d="M572.189 49.9453C572.189 49.9453 564.707 62.6745 556.32 71.241C547.933 79.7472 525.004 81.557 525.004 81.557L525.728 90.4855C525.728 90.4855 543.407 90.7269 557.949 83.3669C572.491 76.0672 575.146 69.3105 575.146 68.5866C575.146 67.8626 572.189 49.9453 572.189 49.9453Z" fill="#E1F4FD"/>
<path d="M608.935 77.1531C605.617 71.422 606.341 69.9138 606.341 69.9138C606.341 69.9138 607.548 57.9086 605.255 50.0056C602.298 39.8103 591.618 37.9401 583.472 42.344C578.525 44.9381 576.292 46.0843 576.292 46.0843C576.292 46.0843 575.327 46.6273 573.999 47.8942C573.516 52.6601 571.525 66.2338 572.792 73.2318C574.421 82.7636 579.369 82.5223 579.369 82.5223C579.369 82.5223 580.636 83.5479 583.714 85.599C586.731 87.6502 587.274 89.0377 588.661 91.9938C592.765 101.103 592.463 110.092 592.463 110.092C592.463 110.092 598.014 111.962 610.565 107.438C623.537 102.732 626.675 96.0357 626.675 96.0357C626.675 96.0357 612.254 82.8843 608.935 77.1531Z" fill="#F37253"/>
<path opacity="0.5" d="M600.247 59.5977C600.247 59.5977 599.04 66.5353 587.757 72.8094C576.474 79.0835 573.336 76.9117 573.336 76.9117L577.379 81.4966L581.482 84.0907C581.482 84.0907 586.188 79.2042 595.058 78.1786C603.928 77.153 612.375 81.8586 612.375 81.8586C612.375 81.8586 607.246 74.7399 606.824 71.1806C606.402 67.6212 606.945 62.3124 606.945 62.3124L600.247 59.5977Z" fill="#A9A8AB"/>
<path d="M606.643 94.103C606.281 94.646 614.668 84.5109 614.668 84.5109L611.953 81.2532C611.953 81.2532 607.548 77.8749 602.721 78.6591C609.78 79.926 611.108 87.105 606.643 94.103Z" fill="#E0D5D8"/>
<path d="M608.875 98.327L620.762 90.4844L626.554 96.0345C626.554 96.0345 624.925 99.6542 619.917 102.671C613.521 99.2319 608.875 98.327 608.875 98.327Z" fill="#E0D5D8"/>
<path d="M588.963 40.414C588.963 40.414 588.601 59.1759 591.919 70.2159C595.238 81.2559 610.383 107.74 613.943 123.304C618.589 143.936 617.684 156.847 617.684 156.847H645.44C645.44 156.847 643.992 122.218 635.182 105.387C626.373 88.4952 616.598 84.0309 612.435 77.6965C608.271 71.4224 608.814 61.2874 606.883 53.1431C606.159 49.7045 600.669 36.8546 588.963 40.414Z" fill="#E1F4FD"/>
<path d="M574.12 47.1699C574.12 47.1699 573.396 65.5096 573.396 71.2407C573.396 76.9718 576.473 80.0485 580.455 82.6426C584.438 85.2367 587.756 87.0466 590.592 95.6131C593.368 104.18 592.704 110.273 592.704 110.273L593.428 110.393C593.428 110.393 590.773 136.696 591.256 156.906C586.067 156.906 585.524 156.906 585.524 156.906C585.524 156.906 586.188 137.239 587.213 125.174C588.239 113.108 589.808 100.5 586.067 92.7174C582.326 84.9351 573.818 84.5731 572.189 74.5587C570.56 64.6046 572.189 50.0053 572.189 50.0053C572.189 50.0053 572.611 48.9194 574.421 47.5319L574.12 47.1699Z" fill="#E1F4FD"/>
<path d="M593.607 74.9812C593.607 74.9812 601.693 61.8298 603.443 53.1426C602.176 65.9321 599.521 76.9117 596.986 82.5222C595.116 78.2992 593.607 74.9812 593.607 74.9812Z" fill="#E3EFEE"/>
<path d="M580.816 86.5039L583.713 84.875C583.713 84.875 586.79 87.1675 588.238 90.1839C586.428 89.7616 584.316 90.0029 584.316 90.0029C584.316 90.0029 581.842 87.2278 580.816 86.5039Z" fill="#E3EFEE"/>
<path d="M590.349 47.4707C590.349 47.4707 585.1 68.6457 575.687 76.1264C566.274 83.5467 546.061 73.8943 546.061 73.8943L544.371 82.7021C544.371 82.7021 559.939 94.5263 578.342 87.5887C596.685 80.651 599.34 60.0792 599.34 60.0792L590.349 47.4707Z" fill="#E1F4FD"/>
<path d="M545.759 75.3426C545.759 75.3426 542.682 71.6023 540.087 70.2751C537.493 68.8876 534.295 70.4561 534.415 71.9643C534.536 73.4122 539.786 80.8325 544.673 80.9531C545.216 78.2384 545.759 75.3426 545.759 75.3426Z" fill="#FCCAA7"/>
<path d="M525.727 82.6418C525.727 82.6418 522.167 79.3841 519.452 78.3585C516.676 77.3329 513.72 79.3237 514.021 80.7716C514.323 82.2195 520.538 88.7952 525.425 88.3126C525.546 85.5978 525.727 82.6418 525.727 82.6418Z" fill="#FCCAA7"/>
<path d="M554.75 13.5679C554.75 13.5679 557.224 44.3954 573.153 40.4137C587.876 36.7941 582.687 12.7836 582.687 12.7836C573.998 6.08726 556.862 5.36333 554.75 13.5679Z" fill="#FCC192"/>
<path d="M563.197 23.9428C563.438 24.4857 563.378 25.0287 563.016 25.2097C562.654 25.3907 562.171 25.089 561.93 24.5461C561.689 24.0031 561.749 23.4602 562.111 23.2792C562.473 23.0982 562.956 23.3998 563.197 23.9428Z" fill="#050065"/>
<path d="M557.344 23.8829C557.585 24.4258 557.525 24.9688 557.163 25.1498C556.801 25.3308 556.318 25.0291 556.076 24.4862C555.835 23.9432 555.895 23.4003 556.257 23.2193C556.559 23.0383 557.042 23.4003 557.344 23.8829Z" fill="#050065"/>
<path fill-rule="evenodd" clip-rule="evenodd" d="M560.646 21.7494L560.647 21.7462L560.653 21.7302C560.658 21.7155 560.667 21.693 560.679 21.6642C560.703 21.6064 560.74 21.5238 560.79 21.4273C560.89 21.2323 561.037 20.9908 561.23 20.7845C561.424 20.5777 561.649 20.4215 561.904 20.3653C562.151 20.3109 562.465 20.3416 562.863 20.5804C563.005 20.6656 563.19 20.6195 563.275 20.4774C563.36 20.3353 563.314 20.1511 563.172 20.0658C562.665 19.7616 562.195 19.6868 561.774 19.7794C561.362 19.8703 561.036 20.1138 560.792 20.3745C560.548 20.6357 560.371 20.9296 560.256 21.1532C560.198 21.266 560.155 21.3633 560.126 21.4333C560.111 21.4683 560.1 21.4966 560.092 21.5167L560.083 21.5406L560.081 21.5476L560.08 21.5498L560.08 21.5506L560.08 21.5509C560.079 21.5511 560.079 21.5512 560.363 21.6503L560.079 21.5512C560.025 21.7076 560.107 21.8787 560.263 21.9335C560.42 21.9882 560.591 21.9059 560.646 21.7496L560.646 21.7498L560.646 21.7499C560.646 21.7498 560.646 21.7497 560.646 21.7495L560.646 21.7494Z" fill="#050065"/>
<path fill-rule="evenodd" clip-rule="evenodd" d="M558.163 22.1934C558.163 22.1936 558.163 22.1937 557.888 22.3148L558.163 22.1937C558.23 22.3453 558.161 22.5224 558.009 22.5893C557.858 22.6561 557.681 22.5876 557.614 22.4362C557.614 22.4362 557.614 22.4362 557.614 22.4362C557.614 22.4362 557.614 22.4362 557.614 22.4362L557.614 22.4362L557.614 22.4363L557.613 22.4342L557.607 22.4217C557.602 22.4099 557.593 22.3916 557.58 22.3681C557.555 22.3208 557.518 22.2529 557.467 22.174C557.364 22.0144 557.213 21.8183 557.017 21.6555C556.823 21.4934 556.593 21.3714 556.326 21.3403C556.063 21.3095 555.733 21.3638 555.327 21.6068C555.185 21.6921 555.001 21.646 554.916 21.5039C554.831 21.3618 554.877 21.1776 555.019 21.0923C555.519 20.7924 555.98 20.6959 556.396 20.7443C556.808 20.7924 557.143 20.9795 557.402 21.1945C557.659 21.4087 557.847 21.6575 557.971 21.8486C558.033 21.945 558.08 22.0289 558.112 22.0895C558.128 22.1199 558.14 22.1447 558.148 22.1624L558.158 22.1837L558.161 22.1902L558.162 22.1923L558.163 22.1931L558.163 22.1934Z" fill="#050065"/>
<path fill-rule="evenodd" clip-rule="evenodd" d="M566.473 30.7853C566.526 30.6281 566.696 30.5432 566.853 30.5955C567.032 30.6552 567.068 30.8216 567.076 30.8693C567.086 30.9328 567.08 30.9945 567.073 31.0388C567.059 31.1333 567.026 31.2464 566.984 31.3648C566.898 31.606 566.754 31.9184 566.565 32.2445C566.195 32.8841 565.614 33.6445 564.896 33.9864L564.892 33.9882L564.892 33.9882C563.72 34.5264 562.915 34.4725 562.383 34.2205C562.123 34.0971 561.945 33.9337 561.831 33.7987C561.774 33.7313 561.733 33.6707 561.705 33.6249C561.691 33.6019 561.68 33.5826 561.673 33.5679C561.669 33.5605 561.666 33.5542 561.663 33.5492L561.66 33.5427L561.659 33.5401L561.658 33.539L561.658 33.5385C561.658 33.5383 561.658 33.5381 561.931 33.4139L561.658 33.5381C561.589 33.3873 561.656 33.2094 561.807 33.1408C561.957 33.0727 562.133 33.138 562.203 33.2866C562.203 33.2866 562.203 33.2866 562.203 33.2866C562.203 33.2871 562.203 33.288 562.204 33.2893C562.206 33.2935 562.211 33.3017 562.218 33.313C562.231 33.3358 562.255 33.3708 562.289 33.4118C562.358 33.4936 562.471 33.598 562.64 33.6782C562.968 33.8333 563.58 33.9302 564.64 33.4438C565.188 33.182 565.692 32.5555 566.046 31.944C566.219 31.6442 566.347 31.3647 566.419 31.1628C566.448 31.081 566.466 31.0193 566.475 30.9783C566.454 30.918 566.452 30.8505 566.473 30.7853Z" fill="#050065"/>
<path d="M559.577 7.17308C560.241 6.87144 560.422 7.29373 560.422 7.29373C560.422 7.29373 560.12 7.41439 559.638 7.47471L558.189 8.50029C558.31 8.3193 558.974 7.47472 559.577 7.17308Z" fill="#18287D"/>
<path d="M555.111 14.6516C555.111 14.6516 557.163 30.8194 561.145 34.8614C560.602 34.3184 548.896 20.986 554.93 11.7559" fill="#050065"/>
<path d="M574.059 47.4718C574.059 47.4718 582.627 50.4278 588.359 43.7918C590.712 37.8193 589.626 34.8633 589.626 34.8633L574.059 47.4718Z" fill="#FCC192"/>
<path d="M606.883 33.7176C604.047 30.5806 599.643 29.6757 595.6 29.3137C593.971 29.193 588.359 29.2534 587.213 29.2534C587.213 29.2534 586.67 29.4947 586.006 29.8566C585.403 30.2186 584.86 31.5458 584.739 32.2698C584.558 33.5366 585.101 35.0448 585.523 36.2514C586.247 38.3629 587.092 40.1124 588.48 41.8619C590.109 43.9733 591.859 45.8435 593.91 47.5327C595.298 48.6186 596.203 50.1871 596.445 51.9366C598.858 49.3425 595.781 45.0592 595.721 42.2238C598.617 45.1196 600.065 49.1012 601.091 53.0225C601.875 56.1595 601.211 58.5726 599.824 61.408C601.996 61.1667 604.59 58.633 605.978 57.0041C607.487 55.1943 608.512 53.4448 609.418 51.2127C610.202 49.2218 611.107 47.593 611.228 45.4212C611.288 41.1983 609.78 36.915 606.883 33.7176Z" fill="#050065"/>
<path d="M558.311 6.56898C559.035 6.26735 559.76 6.14669 560.484 6.02603C560.906 5.42276 561.389 4.94014 561.811 4.51784C563.32 3.1303 565.311 1.32047 567.905 0.355228C573.457 -1.75624 579.128 -0.368705 584.016 3.00965C588.481 6.08636 591.92 12.6018 592.886 17.9106C593.73 22.4955 593.187 27.8043 589.024 30.6397C588.36 31.062 587.878 31.243 588.36 32.0876C588.783 32.8116 589.808 33.2338 590.532 33.4752C590.231 33.3545 588.541 34.0181 588.059 34.0784C587.153 34.1991 586.248 34.2594 585.283 34.2594C583.231 34.3197 581.18 34.2594 579.189 33.9578C579.008 33.9578 578.827 33.8974 578.646 33.8371C577.439 35.9486 575.749 37.7584 573.698 38.9046C572.732 39.4476 571.767 39.8699 570.862 40.5335C572.37 39.3269 573.215 36.4915 573.638 34.6214C574.12 32.3893 574.12 29.9761 573.638 27.744C573.215 25.8739 572.491 24.064 571.465 22.4955C570.56 21.0476 569.112 18.9965 567.543 18.2726C567.785 18.7552 568.086 19.2378 568.328 19.6601C568.69 20.3237 569.534 21.1683 569.595 21.9526C569.595 21.5906 567.604 20.6253 567.242 20.4444C564.647 18.9965 561.69 18.5139 558.915 17.3676C558.311 17.1263 557.708 16.8247 557.165 16.4627C556.32 15.9198 555.596 15.2562 555.053 14.4719C553.122 11.6365 555.234 7.77554 558.311 6.56898Z" fill="#050065"/>
<path d="M441.642 170.881L705.686 170.881L705.686 159.6L441.642 159.6L441.642 170.881Z" fill="#A7B3D8"/>
<path d="M441.615 159.662L448.62 152.309H695.349L705.855 159.662H441.615Z" fill="#BFCBF1"/>
<path d="M457.339 169.93H450.291V244.171H457.339V169.93Z" fill="#A7B3D8"/>
<path d="M694.273 169.93H687.225V244.171H694.273V169.93Z" fill="#A7B3D8"/>
<path d="M538.806 219.615C538.806 219.615 535.004 228.121 535.608 229.328C536.211 230.535 540.073 233.189 541.762 234.577C543.452 235.964 547.676 237.895 552.503 239.403C557.33 240.911 554.132 237.05 551.055 233.672C547.977 230.293 545.202 221.666 545.202 221.666L538.806 219.615Z" fill="#FCC192"/>
<path d="M520.644 219.615C520.644 219.615 516.842 228.121 517.446 229.328C518.049 230.535 521.911 233.189 523.6 234.577C525.29 235.964 529.514 237.895 534.341 239.403C539.168 240.911 535.97 237.05 532.893 233.672C529.815 230.293 527.04 221.666 527.04 221.666L520.644 219.615Z" fill="#FCC192"/>
<path d="M538.684 122.969C533.314 114.101 532.047 93.2272 531.685 81.9459C531.323 70.6646 525.41 62.9427 525.41 62.9427C523.057 61.4948 514.307 67.6482 514.609 77.6023C514.851 87.6167 521.488 114.402 527.099 122.185C532.107 129.062 540.796 146.436 546.287 150.237C548.278 148.246 550.511 146.738 552.804 145.35C548.821 142.877 547.072 136.784 538.684 122.969Z" fill="#050065"/>
<path d="M536.211 218.71L546.046 175.757C548.158 168.155 546.227 163.148 539.228 159.468L529.574 154.401L522.031 138.776L532.47 137.811C532.47 137.811 568.975 142.275 567.648 161.64C564.932 201.939 550.27 222.631 550.27 222.631C550.27 222.631 541.822 224.683 536.211 218.71Z" fill="#474341"/>
<path d="M518.532 221.002L520.343 174.007C520.101 168.397 516.481 163.45 511.231 161.459L500.069 157.236L496.207 151.746L521.248 138.836C521.248 138.836 538.625 141.068 544.297 157.899C548.461 170.206 530.721 221.545 530.721 221.545C530.721 221.545 527.161 225.346 518.532 221.002Z" fill="#56504E"/>
<path d="M514.851 58.9625C514.851 58.9625 514.549 58.9625 514.067 58.9625C510.205 58.9022 493.491 59.4451 489.388 72.7776C484.742 87.7992 484.319 141.491 499.645 156.814C499.645 156.814 523.419 135.458 537.176 139.138C537.176 139.138 523.298 120.798 523.298 110.241C523.298 99.6838 528.91 74.5874 526.858 66.5638C524.807 58.4799 514.851 58.9625 514.851 58.9625Z" fill="#2D54A0"/>
<path d="M507.007 118.325C500.611 110.181 502.542 92.0829 504.956 81.0429C507.369 70.003 503.447 61.0744 503.447 61.0744C501.516 59.144 491.56 62.9446 489.388 72.7177C487.216 82.4908 490.172 108.794 493.793 117.783C496.991 125.685 511.653 139.802 515.998 144.809C518.411 143.361 520.945 142.457 523.48 141.612C520.282 138.234 512.739 125.565 507.007 118.325Z" fill="#002865"/>
<path d="M518.531 138.052C518.35 138.173 517.988 138.294 517.566 138.354C516.963 140.345 516.42 142.396 516.299 144.628C516.963 144.568 517.506 144.508 517.807 144.568C520.161 144.809 523.479 147.946 523.781 148.127C524.083 148.308 524.686 148.851 524.686 148.851C524.686 148.851 525.893 147.524 526.858 147.343C527.824 147.162 527.522 146.679 528.186 145.714C528.849 144.809 529.091 145.955 529.996 144.628C530.901 143.301 526.918 140.466 525.289 139.319C523.66 138.173 520.1 136.906 518.531 138.052Z" fill="#FCC192"/>
<path d="M508.818 50.1562C508.818 50.1562 507.37 60.5326 509.24 64.8762C509.24 64.8762 519.8 67.9529 522.816 65.2985L519.86 53.7156L508.818 50.1562Z" fill="#FCC192"/>
<path d="M507.973 47.5605L520.101 54.6792L522.575 63.849C518.23 64.9349 512.317 59.6261 509.602 52.1455C509.119 50.8786 508.576 49.7323 507.973 48.6464C507.973 47.9828 507.973 47.5605 507.973 47.5605Z" fill="#F8A27D"/>
<path d="M521.004 29.3419C521.185 29.4625 521.427 29.6435 521.668 30.0055C522.815 31.5137 524.504 35.073 524.685 39.7786C524.926 45.4494 525.952 57.2736 521.849 58.4802C517.806 59.6867 510.747 55.7654 508.333 49.3104C505.92 42.8553 502.179 40.3819 503.084 34.6507C504.049 28.8593 521.004 29.3419 521.004 29.3419Z" fill="#FCC192"/>
<path d="M503.144 34.6507C504.049 28.8593 521.005 29.3419 521.005 29.3419C521.186 29.4625 521.427 29.6435 521.668 30.0055C522.815 31.5137 524.504 35.073 524.685 39.7786C524.746 40.5628 524.746 41.4074 524.806 42.3123C522.573 41.5281 520.462 39.3563 518.41 36.7019C518.108 36.5209 517.445 34.5301 513.462 34.1681C513.221 36.0986 512.376 36.2192 511.592 40.6835C513.764 48.5864 510.747 50.7582 509.299 51.3012C508.937 50.6979 508.635 50.0343 508.394 49.3104C505.98 42.8553 502.239 40.3819 503.144 34.6507Z" fill="#FCC192"/>
<path d="M509.721 40.743C509.721 40.743 510.264 37.244 511.229 35.3135C512.195 33.383 511.41 32.1764 511.41 32.1764C511.41 32.1764 516.841 31.5731 519.435 34.8912C522.03 38.2092 525.469 43.2164 530.357 39.0538C535.244 34.8912 531.925 27.3502 530.658 27.7122C529.331 28.0741 527.762 27.2899 527.762 27.2899C527.762 27.2899 520.944 21.4984 518.41 22.2827C515.875 23.0066 517.323 19.9299 512.858 20.4728C508.333 21.0761 506.161 26.204 506.161 26.204C506.161 26.204 503.626 24.5148 501.032 27.7122C498.377 30.9095 502.48 39.1744 504.592 41.8892C506.643 44.6039 508.212 49.5508 508.212 49.5508C508.212 49.5508 512.255 49.3095 509.721 40.743Z" fill="#002865"/>
<path d="M507.006 39.9594C507.006 38.2702 508.876 37.486 510.083 38.6925C511.049 39.7181 511.893 41.0453 511.169 42.4932C509.721 45.3286 507.127 43.4584 507.006 40.5024C507.006 40.3214 507.006 40.1404 507.006 39.9594Z" fill="#FCC192"/>
<path d="M511.17 40.7425C510.929 40.1392 509.722 38.45 508.937 39.3549C508.153 40.2598 508.093 42.8539 509.782 42.8539C511.532 42.8539 511.411 41.3458 511.17 40.7425Z" fill="#FCC192"/>
<path d="M518.048 43.2168C518.048 43.7597 518.41 44.2423 518.892 44.2423C519.315 44.2423 519.677 43.7597 519.616 43.1564C519.616 42.6135 519.254 42.1309 518.772 42.1309C518.349 42.1912 517.987 42.6738 518.048 43.2168Z" fill="#050065"/>
<path d="M523.115 43.2168C523.115 43.7597 523.477 44.2423 523.96 44.2423C524.382 44.2423 524.744 43.7597 524.684 43.1564C524.684 42.6135 524.322 42.1309 523.839 42.1309C523.477 42.1912 523.115 42.6738 523.115 43.2168Z" fill="#050065"/>
<path d="M521.126 53.6527C521.609 53.5924 521.91 53.4717 521.91 53.4717C522.031 53.4114 522.091 53.2907 522.031 53.1701C521.971 53.0494 521.85 52.9891 521.729 53.0494C521.669 53.1098 519.678 53.9543 517.626 51.7826C517.566 51.6619 517.385 51.7222 517.325 51.7826C517.264 51.8429 517.264 52.0239 517.325 52.0842C518.773 53.6527 520.281 53.7734 521.126 53.6527Z" fill="#050065"/>
<path d="M519.678 40.4402C519.678 40.4402 518.652 39.5955 518.049 40.5005" stroke="#050065" stroke-width="0.5772" stroke-miterlimit="10" stroke-linecap="round" stroke-linejoin="round"/>
<path d="M522.814 40.4402C522.814 40.4402 523.84 39.5955 524.444 40.5005" stroke="#050065" stroke-width="0.5772" stroke-miterlimit="10" stroke-linecap="round" stroke-linejoin="round"/>
<path d="M617.964 150.667C617.235 151.024 616.535 151.324 616.083 151.983C615.619 152.658 615.58 153.842 616.263 154.27C616.768 154.587 621.35 157.165 635.025 157.008C635.335 157.004 636.968 157.196 640.292 156.236C641.483 155.891 642.844 155.287 644.524 154.664C645.781 154.198 648.143 152.784 648.143 152.784C648.143 152.784 643 149.409 637.05 148.875C631.94 148.417 630.018 148.473 627.232 148.701C625.876 148.811 620.334 149.506 617.964 150.667Z" fill="#D3D9EB"/>
<path d="M651.17 151.993C651.223 152.052 651.422 152.302 651.383 152.532C651.344 152.761 651.202 153.613 651.119 153.758C651.037 153.904 645.64 156.299 645.059 156.564C642.853 157.57 639.105 158.299 632.907 158.283C632.421 158.282 628.01 158.252 622.953 157.56C619.398 157.073 616.589 156.041 616.344 155.728C616.099 155.415 615.689 154.534 615.576 153.866C615.671 154.114 616.337 154.492 617.71 154.905C619.252 155.369 621.685 155.875 625.2 156.247C627.567 156.497 630.343 156.597 634.158 156.678C637.406 156.747 640.153 156.373 645.692 154.357C646.353 154.115 651.17 151.993 651.17 151.993Z" fill="#A7B4D8"/>
<path d="M639.255 143.232L627.307 141.781C625.968 141.647 624.961 140.612 625.049 139.459L630.125 109.535C630.213 108.373 631.377 107.354 632.728 107.475L644.816 108.123C646.189 108.245 647.22 109.317 647.098 110.495L641.885 141.396C641.767 142.547 640.594 143.364 639.255 143.232Z" fill="#56504E"/>
<path d="M639.688 143.251C641.027 143.384 642.222 143.12 642.621 141.287L647.834 110.386C647.956 109.208 646.547 108.303 645.174 108.18C645.963 108.358 647.159 109.121 647.103 110.194C647.045 111.316 645.765 118.393 645.699 118.785C645.632 119.177 642.166 139.703 642.054 140.391C641.835 141.728 641.671 142.28 641.248 142.62C641.043 142.785 640.036 143.217 639.688 143.251Z" fill="#848484"/>
<path d="M625.512 141.206C625.461 141.895 624.901 145.003 624.945 145.322C624.989 145.64 625.4 146.836 626.586 146.988C627.773 147.141 637.009 148.099 637.847 148.193C638.685 148.286 639.647 148.276 640.096 147.367C640.545 146.457 640.917 142.962 640.865 142.484C640.814 142.006 640.421 141.175 639.741 141.109C639.282 141.066 630.674 140.188 629.771 140.12C628.867 140.052 627.266 139.927 626.835 139.909C626.403 139.89 625.579 140.302 625.512 141.206Z" fill="#D3D9EB"/>
<path d="M641.212 140.549L625.715 139.016L630.81 109.288L646.436 110.249L641.212 140.549Z" fill="#6DD5EC"/>
<path d="M642.784 140.328C642.845 139.897 641.914 146.361 641.865 146.634C641.816 146.907 639.677 148.345 638.763 148.22C639.408 147.906 640.085 147.706 640.294 146.724C640.507 145.722 640.84 143.419 640.848 143.229C640.848 143.229 641.191 143.148 641.276 143.112C641.361 143.077 642.422 142.881 642.784 140.328Z" fill="#D3D9EB"/>
<path d="M637.054 153.964C636.992 154.395 636.032 154.975 634.605 154.712C633.463 154.502 632.151 153.586 630.552 153.357C628.312 153.036 626.257 153.414 625.073 153.056C624.21 152.795 624.036 152.401 624.077 152.109C624.189 151.33 627.899 149.999 631.482 150.512C635.066 151.025 637.165 153.185 637.054 153.964Z" fill="#A7B4D8"/>
<path d="M632.684 148.556C641.44 149.089 643.398 150.991 645.346 152.009C646.47 152.596 647.94 154.025 648.094 153.937C648.249 153.849 650.429 152.238 650.931 151.991C651.178 151.869 650.058 150.729 649.654 150.332C647.301 148.023 645.314 146.064 644.652 143.29C643.021 136.463 645.571 127.924 646.402 126.807C647.498 125.334 647.048 124.494 646.919 123.96C646.791 123.426 645.683 122.903 645.683 122.903C645.683 122.903 641.917 145.435 641.763 146.613C641.75 146.712 641.122 147.348 639.906 147.943C638.864 148.454 637.782 148.137 636.598 148.03C635.413 147.923 632.122 147.571 632.122 147.571C632.122 147.571 633.415 148.248 630.4 148.55C631.721 148.54 632.684 148.556 632.684 148.556Z" fill="#A7B4D8"/>
<path d="M636.214 119.707C635.41 119.623 634.687 120.231 634.601 121.064L634.181 125.091C634.094 125.925 634.675 126.669 635.479 126.753C636.283 126.837 637.006 126.229 637.092 125.395L637.513 121.369C637.6 120.535 637.019 119.791 636.214 119.707Z" fill="white"/>
<path d="M635.457 129.203C635.379 129.2 635.301 129.194 635.223 129.186C634.201 129.079 633.283 128.567 632.639 127.742C632 126.922 631.707 125.893 631.817 124.842L631.923 123.836C631.947 123.603 632.156 123.435 632.388 123.458C632.621 123.483 632.789 123.691 632.765 123.924L632.66 124.93C632.573 125.762 632.803 126.575 633.307 127.221C633.807 127.862 634.52 128.26 635.312 128.343C636.105 128.426 636.882 128.183 637.505 127.66C638.132 127.132 638.525 126.384 638.612 125.553L638.717 124.546C638.742 124.314 638.951 124.145 639.183 124.169C639.416 124.194 639.584 124.402 639.56 124.635L639.455 125.641C639.344 126.691 638.846 127.638 638.05 128.307C637.311 128.929 636.398 129.243 635.457 129.203Z" fill="white"/>
<path d="M635.037 131.203C635.029 131.203 635.02 131.203 635.011 131.201C634.779 131.177 634.61 130.969 634.634 130.736L634.844 128.723C634.869 128.49 635.078 128.322 635.31 128.346C635.542 128.37 635.711 128.578 635.687 128.811L635.477 130.824C635.453 131.047 635.26 131.213 635.037 131.203Z" fill="white"/>
<path d="M636.981 131.405C636.972 131.405 636.964 131.404 636.955 131.403L633.072 130.998C632.839 130.973 632.671 130.765 632.695 130.532C632.719 130.299 632.927 130.131 633.16 130.155L637.043 130.56C637.276 130.585 637.444 130.793 637.421 131.026C637.396 131.25 637.202 131.415 636.981 131.405Z" fill="white"/>
</g>
<path d="M696.492 496.105H596.764V397.275H696.492V496.105ZM599.239 494.333H694.067V399.09H599.239V494.333Z" fill="#D3D9EC"/>
<path d="M695.312 460.684H598V462.456H695.312V460.684Z" fill="#D3D9EC"/>
<path d="M695.312 428.137H598V429.909H695.312V428.137Z" fill="#D3D9EC"/>
<path d="M660.121 407.449H633.195L623.699 401.734H669.557L660.121 407.449Z" fill="#D3D9EC"/>
<path d="M660.121 438.267H633.195L623.699 432.553H669.557L660.121 438.267Z" fill="#D3D9EC"/>
<path d="M660.121 470.814H633.195L623.699 465.1H669.557L660.121 470.814Z" fill="#D3D9EC"/>
<path d="M657.441 370.312H638.668L642.031 398.123H654.078L657.441 370.312Z" fill="#EBEFF8"/>
<path d="M656.55 377.182H639.514L639.225 374.922H656.884L656.55 377.182Z" fill="#C6D0EF"/>
<path d="M634.371 350.435C631.587 349.615 632.522 339.621 632.522 339.621L639.381 336.562C639.381 336.562 637.154 351.254 634.371 350.435Z" fill="#078F0D"/>
<path d="M659.202 317.018C659.135 317.195 663.01 329.117 667.397 329.759C671.784 330.402 667.397 319.898 667.397 319.898L659.202 317.018Z" fill="#5DBD61"/>
<path d="M647.732 375.698C647.732 375.698 658.466 317.018 641.964 303.368C639.849 301.617 637.978 311.567 639.381 325.528C640.94 340.774 647.554 360.518 647.732 375.698Z" fill="#94D697"/>
<path d="M651.116 341.172C651.116 341.172 647.375 355.044 647.931 370.09L651.094 342.258L651.116 341.172Z" fill="#1CA522"/>
<path d="M647.621 374.921C647.621 374.921 649.002 333.637 659.045 317.172C660.003 315.599 667.396 319.898 667.396 319.898C667.396 319.898 667.018 321.87 666.773 322.934C662.163 341.46 647.621 374.921 647.621 374.921Z" fill="#94D697"/>
<path d="M648.356 372.064L648.066 372.02C656.907 319.966 662.809 318.238 663.076 318.193L663.121 318.481L663.098 318.348L663.121 318.481C663.076 318.459 657.086 320.587 648.356 372.064Z" fill="white"/>
<path d="M641.676 339.443L642.433 343.1L647.778 372.971C647.778 372.971 649.114 355.952 641.676 339.443Z" fill="#1CA522"/>
<path d="M648.09 370.091H647.8C648.535 323.688 641.899 305.827 641.832 305.65L642.099 305.539C642.166 305.716 648.825 323.621 648.09 370.091Z" fill="white"/>
<path d="M648.09 374.368C648.09 374.368 647.177 347.023 639.382 336.563C639.293 336.453 632.523 339.621 632.523 339.621C632.523 339.621 633.147 342.458 633.926 344.674C637.222 354.003 644.794 360.695 648.09 374.368Z" fill="#5DBD61"/>
<path d="M647.243 370.001C644.905 352.495 636.509 338.911 636.42 338.778L636.665 338.623C636.754 338.756 645.194 352.384 647.532 369.957L647.243 370.001Z" fill="white"/>
<path d="M648.245 374.744C648.245 374.744 643.925 358.036 639.716 357.46C635.863 356.95 636.821 360.318 638.268 363C639.359 365.038 642.677 367.964 644.303 369.759C645.773 371.354 647.22 373.282 648.245 374.744Z" fill="#64CB69"/>
<path d="M648.133 374.788C644.748 365.813 638.491 358.811 638.424 358.722L638.624 358.545C638.691 358.611 644.971 365.658 648.378 374.699L648.133 374.788Z" fill="white"/>
<path d="M647.51 372.619C647.51 372.619 650.516 330.67 663.009 330.67C666.305 330.67 665.993 336.564 663.967 342.304C661.94 348.021 647.51 372.619 647.51 372.619Z" fill="#5DBD61"/>
<path d="M648.379 370.003L648.111 369.936C653.679 345.871 664.234 332.686 664.323 332.553L664.546 332.73C664.435 332.885 653.946 346.004 648.379 370.003Z" fill="white"/>
<path d="M647.777 375.277C647.777 375.277 652.877 352.984 663.344 350.724C666.595 350.014 666.907 353.604 664.992 356.441C660.56 363 655.661 364.684 651.719 369.981C649.826 372.485 647.777 375.277 647.777 375.277Z" fill="#94D697"/>
<path d="M648.623 373.77L648.355 373.659C654.413 357.748 665.436 352.208 665.547 352.164L665.681 352.408C665.57 352.474 654.635 357.97 648.623 373.77Z" fill="white"/>
<path d="M658.867 370.312H637.266V375.697H658.867V370.312Z" fill="#D3DCF4"/>
<path d="M366.358 220.117H344.127V287.824H366.358V220.117Z" fill="#998E89"/>
<path d="M442.259 252.697H268.224C263.249 252.697 259.332 248.665 259.332 243.783V125.987C259.332 120.999 263.355 117.072 268.224 117.072H442.259C447.235 117.072 451.151 121.105 451.151 125.987V243.783C451.151 248.771 447.235 252.697 442.259 252.697Z" fill="#B8ABA5"/>
<path d="M443.743 124.395H266.85V231.473H443.743V124.395Z" fill="#E1F4FD"/>
<path d="M274.678 241.555C274.678 244.633 277.854 247.074 281.77 247.074C285.687 247.074 288.863 244.633 288.863 241.555C288.863 238.478 285.687 236.037 281.77 236.037C277.854 236.037 274.678 238.584 274.678 241.555Z" fill="#918681"/>
<path d="M380.536 132.885H429.761C430.502 132.885 431.032 133.415 431.032 134.158V137.236C431.032 137.979 430.502 138.509 429.761 138.509H380.536C379.795 138.509 379.266 137.979 379.266 137.236V134.158C379.266 133.522 379.901 132.885 380.536 132.885Z" fill="#B9E5FB"/>
<path d="M380.536 145.09H429.761C430.502 145.09 431.032 145.62 431.032 146.363V149.441C431.032 150.184 430.502 150.714 429.761 150.714H380.536C379.795 150.714 379.266 150.184 379.266 149.441V146.363C379.266 145.62 379.901 145.09 380.536 145.09Z" fill="#B9E5FB"/>
<path d="M383.606 158.992H426.797C429.126 158.992 431.137 160.902 431.137 163.343V218.739C431.137 221.074 429.232 223.09 426.797 223.09H383.606C381.277 223.09 379.266 221.18 379.266 218.739V163.237C379.266 160.902 381.277 158.992 383.606 158.992Z" fill="#B9E5FB"/>
<path d="M283.359 132.885H362.013C365.719 132.885 368.789 135.962 368.789 139.677V216.085C368.789 219.799 365.719 222.877 362.013 222.877H283.359C279.654 222.877 276.584 219.799 276.584 216.085V139.677C276.584 135.962 279.654 132.885 283.359 132.885Z" fill="#B9E5FB"/>
<path d="M145.319 220.117H123.088V287.824H145.319V220.117Z" fill="#998E89"/>
<path d="M221.222 252.697H47.1872C42.2118 252.697 38.2949 248.665 38.2949 243.783V125.987C38.2949 120.999 42.3176 117.072 47.1872 117.072H221.222C226.197 117.072 230.114 121.105 230.114 125.987V243.783C230.114 248.771 226.197 252.697 221.222 252.697Z" fill="#B8ABA5"/>
<path d="M222.702 124.395H45.8086V231.473H222.702V124.395Z" fill="white"/>
<path d="M53.6465 241.555C53.6465 244.633 56.8223 247.074 60.7391 247.074C64.656 247.074 67.8318 244.633 67.8318 241.555C67.8318 238.478 64.656 236.037 60.7391 236.037C56.8223 236.037 53.6465 238.584 53.6465 241.555Z" fill="#918681"/>
<path d="M301.145 282.838H216.668V287.826H301.145V282.838Z" fill="#918783"/>
<path d="M443.426 300.877H436.016V529.36H443.426V300.877Z" fill="#C1B2AE"/>
<path d="M5.47779 287.93H480.474C483.015 287.93 485.026 289.946 485.026 292.493V299.603C485.026 302.15 483.015 304.166 480.474 304.166H5.47779C2.93713 304.166 0.925781 302.15 0.925781 299.603V292.493C0.925781 289.946 2.93713 287.93 5.47779 287.93Z" fill="#E2D2CA"/>
<path d="M40.3028 304.168H32.8926V529.467H40.3028V304.168Z" fill="#C1B2AE"/>
<path d="M165.114 281.352H106.467V288.568H165.114V281.352Z" fill="#CCBDB7"/>
<path d="M112.398 288.036V285.595C112.398 285.595 115.786 270.525 139.711 270.525C163.635 270.525 163.212 287.93 163.212 287.93H112.398V288.036Z" fill="#56504E"/>
<path d="M354.499 209.294C354.499 209.294 358.099 259.278 348.254 265.327C342.114 269.041 317.766 281.67 318.507 284.111C319.248 286.551 332.269 305.229 332.269 305.229C332.269 305.229 379.059 274.347 380.541 264.69C382.023 255.245 391.445 201.653 371.861 188.494C367.414 185.522 364.556 188.175 358.416 192.633C349.947 198.894 354.499 209.294 354.499 209.294Z" fill="#F37253"/>
<path d="M354.499 209.294C354.499 209.294 358.099 259.278 348.254 265.327C342.114 269.041 317.766 281.67 318.507 284.111C319.248 286.551 332.269 305.229 332.269 305.229C332.269 305.229 379.059 274.347 380.541 264.69C382.023 255.245 391.445 201.653 371.861 188.494C367.414 185.522 364.556 188.175 358.416 192.633C349.947 198.894 354.499 209.294 354.499 209.294Z" fill="#3D4999"/>
<path d="M297.016 498.161C297.016 498.161 298.498 508.243 298.604 509.834C298.709 511.426 314.8 508.879 314.8 508.879L316.071 496.781C316.071 496.887 299.027 496.781 297.016 498.161Z" fill="#424773"/>
<path d="M298.502 508.561C298.502 508.561 293.421 514.716 288.551 517.263C283.682 519.81 275.954 520.978 273.096 523.737C270.978 525.753 265.474 534.243 285.799 534.137C306.124 534.031 315.969 535.304 318.086 532.014C320.204 528.725 314.911 507.818 314.911 507.818C314.911 507.818 310.147 509.622 298.502 508.561Z" fill="#494949"/>
<path d="M194.543 498.266C194.543 498.266 196.025 508.348 196.131 509.94C196.237 511.532 212.328 508.985 212.328 508.985L213.704 496.887C213.704 496.993 196.554 496.887 194.543 498.266Z" fill="#424773"/>
<path d="M196.025 508.667C196.025 508.667 190.944 514.716 186.075 517.369C181.205 520.023 163.103 522.251 160.245 524.904C158.127 526.921 154.634 534.88 183.322 534.137C203.647 533.606 213.493 535.304 215.716 532.014C217.939 528.725 212.54 507.818 212.54 507.818C212.54 507.818 207.988 509.835 196.025 508.667Z" fill="#494949"/>
<path d="M357.466 333.669C354.925 327.302 348.256 323.481 341.375 324.648C325.39 327.408 286.751 328.469 276.483 330.061C263.356 332.183 213.602 332.502 193.382 362.322C176.762 386.943 185.866 448.706 189.359 494.339C189.995 501.98 196.346 507.923 203.968 507.923C212.014 507.923 218.471 501.449 218.683 493.49L220.271 403.816C220.377 396.069 226.517 389.702 234.244 389.383C260.921 388.216 281.67 382.167 302.63 385.351C324.861 388.747 343.81 393.416 358.736 378.453C361.595 375.587 363.077 371.661 362.971 367.628C362.759 359.351 361.595 344.069 357.466 333.669Z" fill="#56504E"/>
<path d="M291.303 507.923L318.615 506.225L321.261 389.384C335.764 389.702 340.74 388.853 352.49 387.367L374.509 336.004C355.137 339.824 293.208 355.531 284.951 360.518C277.859 364.869 288.762 468.445 291.303 507.923Z" fill="#494949"/>
<path d="M291.303 507.923L318.615 506.225L321.261 389.384C335.764 389.702 340.74 388.853 352.49 387.367L374.509 336.004C355.137 339.824 293.208 355.531 284.951 360.518C277.859 364.869 288.762 468.445 291.303 507.923Z" fill="#56504E"/>
<path d="M324.016 99.3496C324.016 99.3496 301.15 92.9822 292.47 110.811C283.789 128.64 287.706 162.281 299.245 165.464C310.784 168.648 327.298 165.04 332.062 153.897C336.825 142.754 340.636 127.154 339.472 116.966C338.307 106.778 330.156 101.79 324.016 99.3496Z" fill="#FCC192"/>
<path d="M305.274 161.857C305.274 161.857 305.485 175.334 304.003 178.306C302.521 181.277 335.761 180.428 335.761 180.428C335.761 180.428 330.468 164.191 333.538 150.395C336.608 136.599 305.274 161.857 305.274 161.857Z" fill="#FCC192"/>
<path d="M335.344 145.301C335.344 145.301 333.544 148.909 324.969 148.379C316.395 147.848 304.962 137.342 301.362 136.493C297.763 135.644 297.446 133.522 297.446 133.522L295.54 136.917L291.835 137.448C291.835 137.448 294.376 127.048 288.871 123.334C283.366 119.619 291.411 90.0111 319.465 97.1214C319.465 97.1214 340.848 101.048 341.166 113.04C341.484 125.032 339.472 138.934 335.344 145.301Z" fill="#050065"/>
<path d="M302.203 177.881C302.203 177.881 302.309 172.362 304.744 171.832C307.179 171.301 330.891 168.011 333.961 169.285L335.232 176.501C335.338 176.607 329.515 180.216 302.203 177.881Z" fill="#F8A27D"/>
<path d="M302.203 177.881C302.203 177.881 302.309 172.362 304.744 171.832C307.179 171.301 330.891 168.011 333.961 169.285L335.232 176.501C335.338 176.607 329.515 180.216 302.203 177.881Z" fill="#050065"/>
<path d="M295.431 130.867C296.066 126.41 301.147 121.21 304.112 128.214C307.076 135.218 302.1 145.512 298.819 144.981C295.537 144.451 294.584 137.022 295.431 130.867Z" fill="#FCC192"/>
<path d="M208.947 239.008C208.839 239.116 208.731 239.116 208.947 239.008V239.008Z" fill="#323657"/>
<path d="M330.686 102.533C330.686 102.533 358.527 101.26 335.555 144.77L330.686 102.533Z" fill="#050065"/>
<path d="M385.944 521.824L384.039 527.236L302.314 501.873L306.231 490.836L385.944 521.824Z" fill="#918783"/>
<path d="M308.874 409.018H299.559V498.055H308.874V409.018Z" fill="#918783"/>
<path d="M331.531 404.24H276.801V409.44H331.531V404.24Z" fill="#5E5854"/>
<path d="M221.645 521.826L223.656 527.238L305.274 501.875L301.675 490.201L221.645 521.826Z" fill="#918783"/>
<path d="M279.232 526.707V532.969L305.274 501.875L301.675 490.201L279.232 526.707Z" fill="#918783"/>
<path d="M221.643 537C225.853 537 229.265 533.58 229.265 529.36C229.265 525.14 225.853 521.719 221.643 521.719C217.434 521.719 214.021 525.14 214.021 529.36C214.021 533.58 217.434 537 221.643 537Z" fill="#BFB2AC"/>
<path d="M286.222 537C290.431 537 293.843 533.58 293.843 529.36C293.843 525.14 290.431 521.719 286.222 521.719C282.012 521.719 278.6 525.14 278.6 529.36C278.6 533.58 282.012 537 286.222 537Z" fill="#BFB2AC"/>
<path d="M385.944 537C390.154 537 393.566 533.58 393.566 529.36C393.566 525.14 390.154 521.719 385.944 521.719C381.735 521.719 378.322 525.14 378.322 529.36C378.322 533.58 381.735 537 385.944 537Z" fill="#BFB2AC"/>
<path d="M359.687 404.241H247.898C242.923 404.241 239.006 400.208 239.006 395.327V393.416C239.006 388.429 243.029 384.502 247.898 384.502H359.793C364.768 384.502 368.685 388.535 368.685 393.416V395.327C368.685 400.208 364.662 404.241 359.687 404.241Z" fill="#E2D2CA"/>
<path d="M172.629 272.863C172.629 272.863 170.195 269.254 167.76 267.875C165.854 266.814 156.962 262.569 149.552 263.63C141.612 264.797 129.015 270.316 129.65 272.969C130.285 275.622 131.873 275.303 133.143 274.879C134.414 274.454 147.329 271.695 148.493 272.12C148.493 272.12 135.79 276.789 135.684 280.185C135.578 283.581 138.331 284.43 139.495 285.703C140.66 286.977 142.142 290.161 145.423 290.373C148.705 290.585 164.69 285.067 167.972 284.748C171.253 284.43 177.393 284.961 177.817 284.43C178.24 283.899 172.629 272.863 172.629 272.863Z" fill="#FCC192"/>
<path d="M271.609 357.76C279.02 368.584 315.965 381.85 337.031 379.515C357.886 377.18 361.485 372.511 361.485 372.405C361.485 372.087 359.474 303.743 360.003 295.89C361.062 278.698 366.46 239.857 366.46 239.857L375.67 220.331C372.812 213.751 372.6 189.131 371.648 188.494C358.944 179.367 332.162 177.139 332.162 177.139L333.326 176.82L301.25 178.306C274.785 184.673 257.318 205.686 240.275 227.016C232.653 236.568 217.197 251.849 217.197 251.849C203.647 260.657 168.925 267.131 167.654 267.555C166.172 268.086 167.654 287.825 168.184 288.568C168.819 289.841 191.896 287.294 204.494 286.87C210.316 286.658 232.653 280.396 244.721 271.8C252.978 265.964 260.812 255.457 265.681 246.012C266.634 244.102 268.963 243.359 270.868 244.314C272.033 244.951 272.88 246.119 272.88 247.498C273.197 247.498 261.764 343.327 271.609 357.76Z" fill="#2D54A0"/>
<path d="M381.813 370.494H326.659C317.238 370.494 309.51 362.747 309.51 353.302V263.522C309.51 254.077 317.238 246.33 326.659 246.33H381.813C391.234 246.33 398.962 254.077 398.962 263.522V353.302C398.962 362.747 391.234 370.494 381.813 370.494Z" fill="#E2D2CA"/>
<path d="M325.389 399.358C338.621 399.358 349.313 394.901 357.147 386.199C375.037 366.46 371.861 331.652 371.65 330.166C371.332 327.407 368.897 325.39 366.251 325.709C363.498 326.027 361.487 328.468 361.805 331.121C361.805 331.546 364.663 363.064 349.737 379.513C343.702 386.199 335.763 389.383 325.389 389.383C322.636 389.489 320.519 391.823 320.625 394.583C320.731 397.13 322.848 399.146 325.389 399.358Z" fill="#E2D2CA"/>
<path d="M303.787 122.061C303.787 122.061 307.175 98.3953 327.712 99.4565C330.57 100.73 332.581 101.791 332.581 101.791C332.581 101.791 310.245 102.216 307.598 124.289L303.787 122.061Z" fill="#F8A27D"/>
<path d="M302.736 143.072C307.998 143.072 312.264 138.273 312.264 132.353C312.264 126.434 307.998 121.635 302.736 121.635C297.475 121.635 293.209 126.434 293.209 132.353C293.209 138.273 297.475 143.072 302.736 143.072Z" fill="#F37253"/>
<path d="M308.029 132.355C308.029 135.645 305.7 138.298 302.842 138.298C299.983 138.298 297.654 135.645 297.654 132.355C297.654 129.065 299.983 126.412 302.842 126.412C305.7 126.412 308.029 129.065 308.029 132.355Z" fill="#F8A27D"/>
<path d="M159.393 183.187L159.922 180.215L159.393 183.187Z" fill="#F2B186"/>
<mask id="mask1" mask-type="alpha" maskUnits="userSpaceOnUse" x="46" y="124" width="178" height="108">
<path d="M223.209 124.018H46.3164V231.096H223.209V124.018Z" fill="white"/>
</mask>
<g mask="url(#mask1)">
<path d="M184.513 163.149C184.513 163.149 189.35 166.65 182.762 175.905C203.026 167.901 207.446 165.983 207.446 165.983C207.446 165.983 192.269 155.311 197.355 150.225C202.359 145.222 184.513 163.149 184.513 163.149Z" fill="#FCC192"/>
<path d="M180.762 178.406C180.762 178.406 170.421 195.999 158.83 207.838C147.238 219.595 115.549 222.096 115.549 222.096L116.55 234.436C116.55 234.436 140.984 234.769 161.081 224.597C181.179 214.509 184.848 205.17 184.848 204.17C184.848 203.169 180.762 178.406 180.762 178.406Z" fill="#E1F4FD"/>
<path d="M231.55 216.01C226.963 208.09 227.964 206.005 227.964 206.005C227.964 206.005 229.632 189.413 226.463 178.491C222.377 164.4 207.616 161.815 196.358 167.902C189.52 171.487 186.434 173.071 186.434 173.071C186.434 173.071 185.1 173.821 183.265 175.572C182.598 182.159 179.846 200.919 181.597 210.591C183.849 223.764 190.687 223.431 190.687 223.431C190.687 223.431 192.439 224.848 196.692 227.683C200.861 230.518 201.612 232.436 203.53 236.521C209.201 249.111 208.784 261.534 208.784 261.534C208.784 261.534 216.456 264.119 233.801 257.866C251.731 251.362 256.067 242.107 256.067 242.107C256.067 242.107 236.136 223.931 231.55 216.01Z" fill="#F37253"/>
<path opacity="0.5" d="M219.539 191.746C219.539 191.746 217.871 201.334 202.277 210.006C186.682 218.677 182.346 215.675 182.346 215.675L187.933 222.012L193.604 225.597C193.604 225.597 200.108 218.844 212.367 217.426C224.626 216.009 236.301 222.512 236.301 222.512C236.301 222.512 229.212 212.674 228.629 207.755C228.045 202.835 228.795 195.498 228.795 195.498L219.539 191.746Z" fill="#A9A8AB"/>
<path d="M228.38 239.441C227.879 240.192 239.471 226.184 239.471 226.184L235.718 221.682C235.718 221.682 229.63 217.013 222.959 218.097C232.716 219.848 234.551 229.77 228.38 239.441Z" fill="#E0D5D8"/>
<path d="M203.938 165.234C203.938 165.234 203.438 191.164 208.024 206.422C212.611 221.68 233.542 258.283 238.463 279.794C244.884 308.309 243.633 326.152 243.633 326.152H281.994C281.994 326.152 279.992 278.293 267.817 255.031C255.641 231.685 242.132 225.516 236.378 216.761C230.624 208.09 231.374 194.082 228.706 182.826C227.705 178.074 220.116 160.314 203.938 165.234Z" fill="#E1F4FD"/>
<path d="M183.431 174.572C183.431 174.572 182.43 199.919 182.43 207.84C182.43 215.761 186.683 220.013 192.187 223.598C197.691 227.183 202.278 229.685 206.197 241.524C210.033 253.364 209.116 261.785 209.116 261.785L210.117 261.952C210.117 261.952 206.447 298.304 207.115 326.236C199.943 326.236 199.192 326.236 199.192 326.236C199.192 326.236 200.11 299.055 201.527 282.379C202.945 265.704 205.113 248.278 199.943 237.522C194.772 226.766 183.014 226.266 180.762 212.426C178.511 198.668 180.762 178.491 180.762 178.491C180.762 178.491 181.346 176.99 183.848 175.073L183.431 174.572Z" fill="#E1F4FD"/>
<path d="M210.363 213.007C210.363 213.007 221.538 194.831 223.956 182.824C222.205 200.5 218.536 215.675 215.033 223.429C212.448 217.593 210.363 213.007 210.363 213.007Z" fill="#E3EFEE"/>
<path d="M192.686 228.935L196.688 226.684C196.688 226.684 200.941 229.852 202.943 234.021C200.441 233.437 197.522 233.771 197.522 233.771C197.522 233.771 194.103 229.935 192.686 228.935Z" fill="#E3EFEE"/>
<path d="M205.862 174.988C205.862 174.988 198.607 204.254 185.597 214.592C172.588 224.848 144.651 211.508 144.651 211.508L142.316 223.681C142.316 223.681 163.832 240.023 189.267 230.434C214.618 220.846 218.287 192.414 218.287 192.414L205.862 174.988Z" fill="#E1F4FD"/>
<path d="M144.237 213.509C144.237 213.509 139.984 208.34 136.398 206.506C132.812 204.588 128.392 206.756 128.559 208.84C128.726 210.841 135.981 221.097 142.736 221.263C143.487 217.511 144.237 213.509 144.237 213.509Z" fill="#FCCAA7"/>
<path d="M116.548 223.597C116.548 223.597 111.627 219.095 107.875 217.677C104.039 216.26 99.9523 219.011 100.369 221.012C100.786 223.013 109.376 232.102 116.131 231.435C116.297 227.683 116.548 223.597 116.548 223.597Z" fill="#FCCAA7"/>
<path d="M156.66 128.132C156.66 128.132 160.079 170.738 182.095 165.235C202.443 160.232 195.271 127.048 195.271 127.048C183.262 117.793 159.579 116.793 156.66 128.132Z" fill="#FCC192"/>
<path d="M168.335 142.473C168.669 143.223 168.585 143.974 168.085 144.224C167.584 144.474 166.917 144.057 166.583 143.307C166.249 142.556 166.333 141.805 166.833 141.555C167.334 141.305 168.001 141.722 168.335 142.473Z" fill="#050065"/>
<path d="M160.245 142.389C160.579 143.14 160.495 143.891 159.995 144.141C159.494 144.391 158.827 143.974 158.493 143.223C158.159 142.473 158.243 141.722 158.743 141.472C159.161 141.222 159.828 141.722 160.245 142.389Z" fill="#050065"/>
<path fill-rule="evenodd" clip-rule="evenodd" d="M164.697 139.404L164.697 139.403L164.699 139.398L164.707 139.374C164.716 139.353 164.728 139.321 164.745 139.28C164.78 139.197 164.832 139.08 164.902 138.944C165.043 138.669 165.252 138.325 165.529 138.029C165.806 137.733 166.136 137.5 166.519 137.416C166.894 137.333 167.358 137.384 167.93 137.727C168.072 137.812 168.256 137.766 168.341 137.624C168.426 137.482 168.38 137.298 168.238 137.212C167.558 136.804 166.938 136.709 166.39 136.83C165.85 136.949 165.419 137.269 165.091 137.619C164.763 137.97 164.524 138.366 164.368 138.67C164.29 138.822 164.231 138.954 164.192 139.049C164.172 139.096 164.157 139.134 164.147 139.161L164.135 139.192L164.132 139.201L164.131 139.204L164.13 139.205L164.13 139.205C164.13 139.205 164.13 139.205 164.413 139.305L164.13 139.205C164.075 139.362 164.158 139.533 164.314 139.588C164.471 139.642 164.642 139.56 164.697 139.404Z" fill="#050065"/>
<path fill-rule="evenodd" clip-rule="evenodd" d="M161.27 140.098C161.27 140.098 161.27 140.098 161.004 140.216L161.27 140.098C161.337 140.25 161.268 140.427 161.116 140.494C160.965 140.561 160.788 140.492 160.721 140.341C160.721 140.341 160.721 140.341 160.721 140.341C160.721 140.341 160.721 140.341 160.721 140.341L160.721 140.341M160.721 140.341C160.721 140.341 160.721 140.341 160.721 140.341L160.721 140.341L160.719 140.337L160.71 140.318C160.702 140.3 160.689 140.274 160.671 140.24C160.635 140.172 160.581 140.075 160.509 139.962C160.362 139.736 160.147 139.455 159.865 139.22C159.584 138.986 159.246 138.804 158.849 138.758C158.456 138.712 157.974 138.795 157.396 139.142C157.254 139.227 157.069 139.181 156.984 139.039C156.899 138.897 156.945 138.713 157.087 138.628C157.76 138.224 158.373 138.099 158.919 138.162C159.46 138.225 159.904 138.472 160.249 138.759C160.593 139.045 160.846 139.379 161.013 139.637C161.097 139.767 161.16 139.88 161.202 139.961C161.224 140.002 161.24 140.035 161.251 140.058L161.264 140.086L161.268 140.094L161.269 140.097L161.27 140.098L161.27 140.098" fill="#050065"/>
<path fill-rule="evenodd" clip-rule="evenodd" d="M172.97 151.965C173.022 151.808 173.192 151.723 173.35 151.775C173.533 151.836 173.572 152.007 173.581 152.062C173.592 152.133 173.585 152.205 173.577 152.262C173.559 152.382 173.516 152.53 173.459 152.691C173.343 153.017 173.147 153.442 172.889 153.888C172.381 154.767 171.592 155.792 170.632 156.249L170.628 156.251L170.628 156.251C169.03 156.985 167.954 156.903 167.258 156.573C166.915 156.411 166.681 156.196 166.532 156.02C166.458 155.931 166.405 155.853 166.369 155.794C166.351 155.764 166.337 155.74 166.328 155.721C166.323 155.712 166.319 155.704 166.316 155.698L166.312 155.691L166.311 155.688L166.311 155.687L166.31 155.686C166.31 155.686 166.31 155.686 166.583 155.562L166.31 155.686C166.242 155.535 166.308 155.357 166.459 155.289C166.609 155.22 166.786 155.286 166.855 155.435C166.855 155.435 166.855 155.435 166.855 155.435M166.855 155.435C166.855 155.435 166.855 155.435 166.855 155.435L166.859 155.443C166.863 155.45 166.871 155.464 166.881 155.482C166.903 155.518 166.939 155.571 166.991 155.633C167.095 155.756 167.263 155.911 167.514 156.031C168.006 156.263 168.889 156.389 170.376 155.707C170.375 155.707 170.374 155.707 170.374 155.708L170.503 155.979L170.378 155.706C170.377 155.706 170.376 155.707 170.376 155.707C171.166 155.33 171.878 154.438 172.37 153.588C172.612 153.168 172.792 152.776 172.894 152.489C172.943 152.351 172.971 152.249 172.982 152.184C173.014 152.255 173.073 152.313 173.151 152.341C173.008 152.289 172.988 152.158 172.988 152.154L172.988 152.154C172.987 152.148 172.987 152.144 172.987 152.144C172.987 152.144 172.987 152.153 172.983 152.174C172.983 152.177 172.982 152.181 172.982 152.184C172.951 152.118 172.945 152.04 172.97 151.965" fill="#050065"/>
<path d="M157.157 129.631C157.157 129.631 159.993 151.976 165.497 157.562C164.746 156.812 148.568 138.386 156.907 125.629" fill="#050065"/>
<path d="M183.346 174.988C183.346 174.988 195.188 179.074 203.11 169.902C206.362 161.648 204.861 157.562 204.861 157.562L183.346 174.988Z" fill="#FCC192"/>
<path d="M228.709 155.98C224.79 151.644 218.702 150.394 213.115 149.893C210.863 149.727 203.108 149.81 201.523 149.81C201.523 149.81 200.773 150.143 199.855 150.644C199.021 151.144 198.271 152.978 198.104 153.979C197.854 155.73 198.605 157.814 199.188 159.482C200.189 162.4 201.356 164.818 203.275 167.236C205.526 170.154 207.945 172.739 210.78 175.073C212.698 176.574 213.949 178.742 214.282 181.16C217.618 177.575 213.365 171.655 213.282 167.736C217.285 171.738 219.286 177.241 220.704 182.661C221.788 186.996 220.87 190.331 218.952 194.25C221.955 193.916 225.54 190.415 227.458 188.163C229.543 185.662 230.961 183.244 232.212 180.159C233.296 177.408 234.547 175.157 234.714 172.155C234.797 166.319 232.712 160.399 228.709 155.98Z" fill="#050065"/>
<path d="M161.58 118.459C162.58 118.042 163.581 117.875 164.582 117.708C165.165 116.874 165.833 116.207 166.416 115.624C168.501 113.706 171.253 111.205 174.839 109.871C182.511 106.953 190.35 108.87 197.105 113.539C203.276 117.792 208.029 126.796 209.364 134.134C210.531 140.47 209.781 147.807 204.026 151.726C203.109 152.31 202.442 152.56 203.109 153.727C203.693 154.728 205.111 155.311 206.111 155.645C205.694 155.478 203.359 156.395 202.692 156.479C201.441 156.645 200.19 156.729 198.856 156.729C196.021 156.812 193.185 156.729 190.433 156.312C190.183 156.312 189.933 156.229 189.683 156.145C188.015 159.063 185.68 161.565 182.845 163.149C181.51 163.899 180.176 164.483 178.925 165.4C181.01 163.732 182.178 159.814 182.761 157.229C183.428 154.144 183.428 150.809 182.761 147.724C182.178 145.139 181.177 142.638 179.759 140.47C178.508 138.469 176.507 135.634 174.339 134.634C174.672 135.301 175.089 135.968 175.423 136.552C175.923 137.469 177.091 138.636 177.174 139.72C177.174 139.22 174.422 137.886 173.922 137.635C170.336 135.634 166.25 134.967 162.413 133.383C161.58 133.05 160.746 132.633 159.995 132.133C158.828 131.382 157.827 130.465 157.076 129.381C154.408 125.462 157.326 120.126 161.58 118.459Z" fill="#050065"/>
<path d="M128.571 279.331C121.149 267.075 119.398 238.226 118.898 222.634C118.397 207.043 110.225 196.371 110.225 196.371C106.973 194.37 94.8807 202.874 95.2976 216.631C95.6312 230.472 104.804 267.491 112.56 278.247C119.482 287.752 131.49 311.765 139.079 317.018C141.831 314.266 144.916 312.182 148.085 310.264C142.581 306.846 140.163 298.424 128.571 279.331Z" fill="#050065"/>
<path d="M95.6331 190.869C95.6331 190.869 95.2161 190.869 94.549 190.869C89.2118 190.786 66.112 191.536 60.4413 209.962C54.0201 230.723 53.4363 304.929 74.6181 326.107C74.6181 326.107 107.475 296.591 126.488 301.677C126.488 301.677 107.308 276.331 107.308 261.74C107.308 247.149 115.064 212.464 112.228 201.374C109.393 190.202 95.6331 190.869 95.6331 190.869Z" fill="#3D4999"/>
<path d="M84.7909 272.913C75.9513 261.657 78.6199 236.644 81.9556 221.386C85.2913 206.128 79.8707 193.788 79.8707 193.788C77.2022 191.12 63.4424 196.372 60.4402 209.88C57.4381 223.387 61.5243 259.739 66.5279 272.162C70.9477 283.085 91.2122 302.595 97.2165 309.515C100.552 307.514 104.055 306.264 107.557 305.096C103.137 300.427 92.7132 282.918 84.7909 272.913Z" fill="#050065"/>
<path d="M87.2936 178.695C87.2936 178.695 85.2921 193.036 87.8773 199.039C87.8773 199.039 102.471 203.292 106.641 199.623L102.554 183.615L87.2936 178.695Z" fill="#FCC192"/>
<path d="M86.1289 175.109L102.891 184.948L106.31 197.621C100.306 199.122 92.1332 191.785 88.3805 181.446C87.7134 179.695 86.9628 178.111 86.1289 176.61C86.1289 175.693 86.1289 175.109 86.1289 175.109Z" fill="#F8A27D"/>
<path d="M104.141 149.928C104.391 150.094 104.724 150.345 105.058 150.845C106.642 152.929 108.977 157.849 109.227 164.352C109.561 172.189 110.979 188.531 105.308 190.199C99.7207 191.866 89.9637 186.447 86.628 177.526C83.2923 168.604 78.122 165.186 79.3729 157.265C80.7071 149.261 104.141 149.928 104.141 149.928Z" fill="#FCC192"/>
<path d="M79.4568 157.265C80.7077 149.261 104.141 149.928 104.141 149.928C104.391 150.094 104.725 150.345 105.058 150.845C106.643 152.929 108.978 157.849 109.228 164.352C109.311 165.436 109.312 166.603 109.395 167.854C106.309 166.77 103.391 163.768 100.555 160.1C100.138 159.85 99.221 157.098 93.717 156.598C93.3835 159.266 92.216 159.433 91.1318 165.603C94.134 176.525 89.9643 179.527 87.9629 180.277C87.4626 179.443 87.0456 178.526 86.712 177.526C83.3763 168.604 78.2059 165.186 79.4568 157.265Z" fill="#FCC192"/>
<path d="M88.5451 165.688C88.5451 165.688 89.2956 160.852 90.6299 158.184C91.9642 155.516 90.8801 153.849 90.8801 153.849C90.8801 153.849 98.3855 153.015 101.971 157.6C105.557 162.186 110.311 169.107 117.065 163.354C123.82 157.6 119.234 147.178 117.482 147.679C115.648 148.179 113.48 147.095 113.48 147.095C113.48 147.095 104.056 139.091 100.554 140.175C97.0512 141.175 99.0526 136.923 92.8815 137.673C86.6271 138.507 83.6249 145.594 83.6249 145.594C83.6249 145.594 80.1224 143.26 76.5365 147.679C72.8672 152.098 78.538 163.52 81.4567 167.272C84.2921 171.024 86.4603 177.861 86.4603 177.861C86.4603 177.861 92.0476 177.528 88.5451 165.688Z" fill="#050065"/>
<path d="M84.793 164.604C84.793 162.269 87.3782 161.185 89.046 162.853C90.3803 164.27 91.5478 166.105 90.5471 168.106C88.5457 172.024 84.9598 169.44 84.793 165.354C84.793 165.104 84.793 164.854 84.793 164.604Z" fill="#FCC192"/>
<path d="M90.5454 165.687C90.2119 164.853 88.544 162.519 87.4599 163.769C86.3758 165.02 86.2924 168.605 88.6274 168.605C91.0458 168.605 90.879 166.521 90.5454 165.687Z" fill="#FCC192"/>
<path d="M100.052 169.105C100.052 169.855 100.553 170.523 101.22 170.523C101.804 170.523 102.304 169.855 102.221 169.021C102.221 168.271 101.721 167.604 101.053 167.604C100.469 167.687 99.9687 168.354 100.052 169.105Z" fill="#050065"/>
<path d="M107.057 169.105C107.057 169.855 107.557 170.523 108.225 170.523C108.808 170.523 109.309 169.855 109.226 169.021C109.226 168.271 108.725 167.604 108.058 167.604C107.557 167.687 107.057 168.354 107.057 169.105Z" fill="#050065"/>
<path d="M104.305 183.531C104.972 183.447 105.389 183.28 105.389 183.28C105.555 183.197 105.639 183.03 105.555 182.864C105.472 182.697 105.305 182.613 105.139 182.697C105.055 182.78 102.303 183.947 99.4678 180.946C99.3844 180.779 99.1342 180.863 99.0508 180.946C98.9674 181.029 98.9674 181.279 99.0508 181.363C101.052 183.531 103.137 183.697 104.305 183.531Z" fill="#050065"/>
<path d="M102.307 165.271C102.307 165.271 100.889 164.103 100.055 165.354" stroke="#050065" stroke-width="0.5772" stroke-miterlimit="10" stroke-linecap="round" stroke-linejoin="round"/>
<path d="M106.637 165.271C106.637 165.271 108.055 164.103 108.889 165.354" stroke="#050065" stroke-width="0.5772" stroke-miterlimit="10" stroke-linecap="round" stroke-linejoin="round"/>
</g>
<g filter="url(#filter1_d)">
<path fill-rule="evenodd" clip-rule="evenodd" d="M113.917 125.178C139.734 125.178 160.663 112.582 160.663 97.044C160.663 81.5061 139.734 68.9102 113.917 68.9102C88.1005 68.9102 67.1719 81.5061 67.1719 97.044C67.1719 104 71.3658 110.366 78.3147 115.276C81.6911 117.662 85.718 119.704 90.2303 121.304L86.2162 138.595L105.125 124.681C107.973 125.007 110.912 125.178 113.917 125.178Z" fill="white"/>
<path d="M78.3147 115.276L78.0261 115.684L78.3147 115.276ZM90.2303 121.304L90.7174 121.417L90.8184 120.982L90.3974 120.832L90.2303 121.304ZM86.2162 138.595L85.7292 138.482L85.4234 139.799L86.5126 138.998L86.2162 138.595ZM105.125 124.681L105.182 124.184L104.987 124.162L104.829 124.278L105.125 124.681ZM160.163 97.044C160.163 104.569 155.092 111.466 146.713 116.509C138.344 121.546 126.75 124.678 113.917 124.678V125.678C126.901 125.678 138.68 122.511 147.229 117.366C155.769 112.226 161.163 105.057 161.163 97.044H160.163ZM113.917 69.4102C126.75 69.4102 138.344 72.5418 146.713 77.5788C155.092 82.6216 160.163 89.5189 160.163 97.044H161.163C161.163 89.0312 155.769 81.8616 147.229 76.722C138.68 71.5765 126.901 68.4102 113.917 68.4102V69.4102ZM67.6719 97.044C67.6719 89.5189 72.7423 82.6216 81.1211 77.5788C89.4902 72.5418 101.084 69.4102 113.917 69.4102V68.4102C100.934 68.4102 89.1549 71.5765 80.6055 76.722C72.0658 81.8616 66.6719 89.0312 66.6719 97.044H67.6719ZM78.6032 114.868C71.7344 110.014 67.6719 103.782 67.6719 97.044H66.6719C66.6719 104.217 70.9972 110.717 78.0261 115.684L78.6032 114.868ZM90.3974 120.832C85.9222 119.246 81.9373 117.224 78.6032 114.868L78.0261 115.684C81.445 118.1 85.5139 120.162 90.0633 121.775L90.3974 120.832ZM86.7033 138.708L90.7174 121.417L89.7433 121.191L85.7292 138.482L86.7033 138.708ZM104.829 124.278L85.9199 138.192L86.5126 138.998L105.421 125.084L104.829 124.278ZM113.917 124.678C110.931 124.678 108.011 124.508 105.182 124.184L105.068 125.178C107.935 125.506 110.893 125.678 113.917 125.678V124.678Z" fill="#F4F4F4"/>
</g>
<line x1="86.3906" y1="87.5059" x2="139.046" y2="87.5059" stroke="#A7B3D8" stroke-width="2" stroke-linecap="round"/>
<line x1="86.3906" y1="96.6152" x2="139.046" y2="96.6152" stroke="#A7B3D8" stroke-width="2" stroke-linecap="round"/>
<line x1="86.3906" y1="104.537" x2="123.56" y2="104.537" stroke="#A7B3D8" stroke-width="2" stroke-linecap="round"/>
<g filter="url(#filter2_d)">
<path fill-rule="evenodd" clip-rule="evenodd" d="M172.131 98.485C186.087 95.7992 196.193 87.9287 196.193 78.6377C196.193 67.132 180.695 57.8047 161.578 57.8047C142.461 57.8047 126.963 67.132 126.963 78.6377C126.963 83.7883 130.068 88.5023 135.214 92.1385C140.972 96.2075 149.285 98.9268 158.659 99.3978L178.88 117.367L172.131 98.485Z" fill="white"/>
<path d="M172.131 98.485L172.036 97.994L171.463 98.1042L171.66 98.6533L172.131 98.485ZM135.214 92.1385L135.503 91.7302L135.214 92.1385ZM158.659 99.3978L158.991 99.0241L158.86 98.9073L158.684 98.8984L158.659 99.3978ZM178.88 117.367L178.548 117.741L179.351 117.199L178.88 117.367ZM195.693 78.6377C195.693 83.088 193.274 87.2481 189.08 90.65C184.887 94.0518 178.953 96.663 172.036 97.994L172.225 98.976C179.265 97.6212 185.362 94.9543 189.71 91.4266C194.059 87.8991 196.693 83.4785 196.693 78.6377H195.693ZM161.578 58.3047C171.061 58.3047 179.623 60.6192 185.796 64.3349C191.98 68.0566 195.693 73.1287 195.693 78.6377H196.693C196.693 72.641 192.657 67.2966 186.312 63.4782C179.958 59.6538 171.212 57.3047 161.578 57.3047V58.3047ZM127.463 78.6377C127.463 73.1287 131.176 68.0566 137.359 64.3349C143.533 60.6192 152.094 58.3047 161.578 58.3047V57.3047C151.944 57.3047 143.198 59.6538 136.844 63.4782C130.499 67.2966 126.463 72.641 126.463 78.6377H127.463ZM135.503 91.7302C130.437 88.1505 127.463 83.5708 127.463 78.6377H126.463C126.463 84.0059 129.7 88.8541 134.926 92.5468L135.503 91.7302ZM158.684 98.8984C149.384 98.4312 141.168 95.7337 135.503 91.7302L134.926 92.5468C140.776 96.6813 149.186 99.4225 158.634 99.8972L158.684 98.8984ZM179.212 116.993L158.991 99.0241L158.327 99.7716L178.548 117.741L179.212 116.993ZM171.66 98.6533L178.409 117.535L179.351 117.199L172.601 98.3167L171.66 98.6533Z" fill="#F4F4F4"/>
</g>
<line x1="141.627" y1="74.4785" x2="180.618" y2="74.4785" stroke="#A7B3D8" stroke-width="2" stroke-linecap="round"/>
<line x1="141.451" y1="83.2578" x2="163.276" y2="83.2578" stroke="#A7B3D8" stroke-width="2" stroke-linecap="round"/>
<defs>
<filter id="filter0_d" x="526.047" y="-45.4336" width="60.1888" height="53.4735" filterUnits="userSpaceOnUse" color-interpolation-filters="sRGB">
<feFlood flood-opacity="0" result="BackgroundImageFix"/>
<feColorMatrix in="SourceAlpha" type="matrix" values="0 0 0 0 0 0 0 0 0 0 0 0 0 0 0 0 0 0 127 0"/>
<feOffset dy="6"/>
<feGaussianBlur stdDeviation="3"/>
<feColorMatrix type="matrix" values="0 0 0 0 0.495226 0 0 0 0 0.616875 0 0 0 0 0.729167 0 0 0 0.25 0"/>
<feBlend mode="normal" in2="BackgroundImageFix" result="effect1_dropShadow"/>
<feBlend mode="normal" in="SourceGraphic" in2="effect1_dropShadow" result="shape"/>
</filter>
<filter id="filter1_d" x="60.6719" y="68.4102" width="106.491" height="83.3891" filterUnits="userSpaceOnUse" color-interpolation-filters="sRGB">
<feFlood flood-opacity="0" result="BackgroundImageFix"/>
<feColorMatrix in="SourceAlpha" type="matrix" values="0 0 0 0 0 0 0 0 0 0 0 0 0 0 0 0 0 0 127 0"/>
<feOffset dy="6"/>
<feGaussianBlur stdDeviation="3"/>
<feColorMatrix type="matrix" values="0 0 0 0 0.495226 0 0 0 0 0.616875 0 0 0 0 0.729167 0 0 0 0.25 0"/>
<feBlend mode="normal" in2="BackgroundImageFix" result="effect1_dropShadow"/>
<feBlend mode="normal" in="SourceGraphic" in2="effect1_dropShadow" result="shape"/>
</filter>
<filter id="filter2_d" x="120.463" y="57.3047" width="82.2299" height="72.4363" filterUnits="userSpaceOnUse" color-interpolation-filters="sRGB">
<feFlood flood-opacity="0" result="BackgroundImageFix"/>
<feColorMatrix in="SourceAlpha" type="matrix" values="0 0 0 0 0 0 0 0 0 0 0 0 0 0 0 0 0 0 127 0"/>
<feOffset dy="6"/>
<feGaussianBlur stdDeviation="3"/>
<feColorMatrix type="matrix" values="0 0 0 0 0.495226 0 0 0 0 0.616875 0 0 0 0 0.729167 0 0 0 0.25 0"/>
<feBlend mode="normal" in2="BackgroundImageFix" result="effect1_dropShadow"/>
<feBlend mode="normal" in="SourceGraphic" in2="effect1_dropShadow" result="shape"/>
</filter>
</defs>
</svg>
